<svg xmlns="http://www.w3.org/2000/svg" width="40" height="40"><path fill="#FFF" d="M26.451 21.138c5.524 0 10.016-4.493 10.016-10.015S31.976 1.107 26.451 1.107c-5.521 0-10.014 4.493-10.014 10.016.001 5.522 4.493 10.015 10.014 10.015zm0-18.779c4.832 0 8.764 3.931 8.764 8.764 0 4.832-3.932 8.763-8.764 8.763s-8.762-3.931-8.762-8.763c0-4.833 3.93-8.764 8.762-8.764zm0 0M38.635 27.396c-.69-1.197-2.226-1.605-3.38-.938l-7.204 3.508c-1.121.56-2.251.56-4.728.56-2.423 0-6.119-.611-6.157-.618a.627.627 0 00-.207 1.235c.156.027 3.835.636 6.363.636 2.598 0 3.902 0 5.281-.689l7.237-3.524a1.24 1.24 0 01.949-.125c.322.087.594.294.76.583.167.29.213.627.126.95a1.263 1.263 0 01-.602.771l-8.463 5.267c-.019.012-1.824 1.149-5.916 1.149-3.548 0-9.03-3.021-9.109-3.064-.056-.026-1.414-.691-4.035-.691a.627.627 0 000 1.251c2.276 0 3.449.549 3.452.549v-.001c.236.133 5.819 3.21 9.692 3.21 4.52 0 6.522-1.304 6.589-1.347l8.433-5.248a2.473 2.473 0 001.165-1.521c.179-.65.09-1.324-.246-1.903zm0 0"/><path fill="#FFF" d="M26.451 14.252c-.69 0-1.251-.562-1.251-1.252a.625.625 0 10-1.252 0 2.5 2.5 0 001.878 2.414v.09a.626.626 0 001.252 0v-.09A2.5 2.5 0 0028.957 13a2.509 2.509 0 00-2.506-2.505 1.252 1.252 0 010-2.503c.692 0 1.251.562 1.251 1.251a.627.627 0 001.255 0 2.5 2.5 0 00-1.879-2.413v-.09a.626.626 0 00-1.252 0v.09a2.5 2.5 0 00-1.878 2.413 2.507 2.507 0 002.503 2.505 1.25 1.25 0 110 2.504zm0 0M5.796 21.138H2.041a.625.625 0 100 1.252h3.755c.345 0 .626.28.626.625v13.771a.63.63 0 01-.626.627H2.041c-.346 0-.626.278-.626.624s.28.628.626.628h3.755a1.882 1.882 0 001.878-1.879V23.015a1.879 1.879 0 00-1.878-1.877zm0 0M9.552 24.894h5.008c.73 0 1.971.931 3.067 1.752 1.373 1.03 2.671 2.003 3.817 2.003H25.2c.95 0 1.423.431 1.436.441a.62.62 0 00.883 0 .62.62 0 000-.884c-.081-.083-.852-.81-2.319-.81h-3.756c-.73 0-1.971-.931-3.066-1.752-1.375-1.031-2.671-2.003-3.818-2.003H9.552a.627.627 0 000 1.253zm0 0"/><path fill="#FFF" d="M4.544 34.594c0-.517-.421-.939-.938-.939s-.939.423-.939.939c0 .518.422.939.939.939s.938-.422.938-.939zm0 0"/></svg>