<svg xmlns="http://www.w3.org/2000/svg" width="40" height="40"><g fill="#FFF"><path fill-rule="evenodd" clip-rule="evenodd" d="M27.962 23.678l1.35-1.189.006-.006.004-.003a11.911 11.911 0 017.108-2.344c.823 0 1.759.11 2.589.275l-.014-1.759a18.843 18.843 0 00-5.582-12.679C29.819 2.395 24.986.414 19.91.414s-9.908 1.98-13.511 5.558A18.844 18.844 0 00.82 18.586l.028 1.755a11.117 11.117 0 012.23-.206c2.432 0 4.794.734 6.793 2.118l.004.002.005.007 1.405 1.158 1.402-1.158.008-.007.004-.002c1.884-1.305 4.016-2.035 6.309-2.111l.083-.003-.038 2.206c.028 1.158 1.942 1.248 1.979 0l.018-2.119.089.012c2.01.263 3.832 1.033 5.458 2.241l.004.003.008.006 1.353 1.19zM23.927 2.493a19.107 19.107 0 015.82 11.899 18.98 18.98 0 01-.375 6.158 13.464 13.464 0 017.748-1.971l.088.005.126-.126-.004-.089a17.264 17.264 0 00-5.086-11.256 17.43 17.43 0 00-8.317-4.62zm3.594 18.711a17.472 17.472 0 00-6.648-19.15 18.604 18.604 0 00-1.904-.003 17.462 17.462 0 00-6.787 18.657 13.46 13.46 0 017.311-2.148c2.899.001 5.701.924 8.028 2.644zM15.927 2.479a19.1 19.1 0 00-5.837 11.912 18.951 18.951 0 00.433 6.404 13.473 13.473 0 00-7.852-2.229l-.088.004-.123-.126.006-.088A17.255 17.255 0 017.55 7.111a17.443 17.443 0 018.377-4.632z"/><path d="M23.658 33.25c.144.32.218.669.218 1.048 0 .22-.014.379-.037.482a2.809 2.809 0 01-.692 1.392c-.5.572-1.192.955-2.081 1.151v1.579c-.059 1.115-1.994 1.186-2.043 0v-1.597l-.347-.103a3.805 3.805 0 01-1.295-.723 3.337 3.337 0 01-.876-1.117c-.182-.424-.273-.818-.273-1.186l2.007.053c.012.125.048.251.109.376.073.174.194.327.366.466.182.159.389.273.62.343.243.08.511.119.802.119.293 0 .569-.044.832-.137.26-.09.476-.233.648-.429.132-.148.218-.316.255-.498v-.119a.842.842 0 00-.074-.377c-.146-.356-.51-.625-1.094-.809l-1.934-.603c-1.168-.378-1.947-1.007-2.336-1.89a2.75 2.75 0 01-.22-1.084c0-.331.065-.659.193-.979.128-.32.307-.607.537-.859.537-.607 1.23-.99 2.082-1.152V25.55c.064-1.312 1.969-1.199 2.043 0v1.064l.365.104c.498.16.924.401 1.278.722.375.31.667.683.875 1.116.183.355.274.751.274 1.187l-2.007-.052a.95.95 0 00-.092-.378 1.251 1.251 0 00-.383-.465 1.922 1.922 0 00-.621-.344 2.178 2.178 0 00-.786-.119c-.292 0-.572.045-.839.138a1.489 1.489 0 00-.656.43.924.924 0 00-.237.499.504.504 0 00-.019.171c0 .275.112.507.338.696.225.188.501.335.83.438l1.933.602c1.168.378 1.946 1.008 2.337 1.891z"/></g></svg>