<?xml version="1.0" encoding="utf-8"?>
<!-- Generator: Adobe Illustrator 16.0.0, SVG Export Plug-In . SVG Version: 6.00 Build 0)  -->
<!DOCTYPE svg PUBLIC "-//W3C//DTD SVG 1.1//EN" "http://www.w3.org/Graphics/SVG/1.1/DTD/svg11.dtd">
<svg version="1.1" id="Layer_1" xmlns="http://www.w3.org/2000/svg" xmlns:xlink="http://www.w3.org/1999/xlink" x="0px" y="0px"
	 width="34px" height="40px" viewBox="0 0 34 40" enable-background="new 0 0 34 40" xml:space="preserve">
<path fill-rule="evenodd" clip-rule="evenodd" fill="#F8E71C" d="M24.189,9.121c-0.945-0.721-2.303-0.537-3.022,0.408
	c-0.721,0.945-0.539,2.299,0.405,3.018c0.944,0.723,2.296,0.543,3.019-0.405C25.312,11.201,25.131,9.843,24.189,9.121L24.189,9.121z
	"/>
<path fill-rule="evenodd" clip-rule="evenodd" fill="#FFFFFF" d="M33.381,9.612C33.239,6.69,31.837,4,29.521,2.234
	c-2.313-1.764-5.276-2.411-8.133-1.776c-0.379,0.087-0.615,0.464-0.532,0.844c0.037,0.167,0.131,0.306,0.259,0.403
	c0.159,0.124,0.37,0.177,0.578,0.13c2.451-0.549,4.991,0.005,6.974,1.518c1.98,1.512,3.192,3.82,3.31,6.323
	c0.004,0.218,0.113,0.407,0.274,0.53c0.127,0.095,0.288,0.152,0.461,0.141C33.096,10.331,33.398,9.999,33.381,9.612L33.381,9.612z"
	/>
<path fill-rule="evenodd" clip-rule="evenodd" fill="#FFFFFF" d="M27.813,4.475c-1.65-1.263-3.767-1.725-5.808-1.27
	c-0.381,0.086-0.62,0.46-0.535,0.839c0.039,0.169,0.136,0.31,0.263,0.407c0.157,0.121,0.367,0.176,0.579,0.128
	c1.632-0.365,3.325,0.004,4.647,1.012c1.325,1.009,2.125,2.547,2.204,4.217c0.01,0.216,0.119,0.405,0.277,0.525
	c0.128,0.096,0.287,0.153,0.458,0.146c0.39-0.02,0.691-0.349,0.672-0.74C30.469,7.652,29.465,5.733,27.813,4.475L27.813,4.475z"/>
<path fill-rule="evenodd" clip-rule="evenodd" fill="#FFFFFF" d="M26.104,6.712c-0.992-0.759-2.26-1.035-3.482-0.763
	c-0.382,0.085-0.62,0.461-0.535,0.84c0.036,0.171,0.135,0.31,0.261,0.407c0.159,0.121,0.369,0.175,0.583,0.129
	c0.812-0.185,1.661-0.001,2.32,0.504c0.664,0.503,1.063,1.271,1.102,2.109c0.01,0.213,0.116,0.403,0.277,0.523
	c0.131,0.099,0.29,0.155,0.461,0.146c0.387-0.019,0.687-0.349,0.667-0.735C27.699,8.62,27.099,7.467,26.104,6.712L26.104,6.712z"/>
<path fill-rule="evenodd" clip-rule="evenodd" fill="#FFFFFF" d="M26.104,6.712"/>
<path fill="#FFFFFF" stroke="#FFFFFF" stroke-width="0.2" stroke-miterlimit="10" d="M1.988,10.166h11.52l6.379,6.382v21.464H1.988
	V10.166L1.988,10.166z M0.994,40h19.891c0.545,0,0.991-0.443,0.991-0.991V16.135c0-0.267-0.104-0.518-0.29-0.707l-6.96-6.959
	c-0.186-0.185-0.441-0.291-0.703-0.291H0.994C0.445,8.178,0,8.623,0,9.172v29.837C0,39.557,0.445,40,0.994,40L0.994,40z"/>
<path fill="#FFFFFF" d="M15.912,34.031h-1.988v-2.978c0-0.55-0.448-0.998-0.998-0.998c-0.546,0-0.991,0.448-0.991,0.998v2.978H9.945
	v-2.978c0-0.55-0.445-0.998-0.996-0.998c-0.549,0-0.994,0.448-0.994,0.998v2.978H5.966v-9.942h1.989v2.984
	c0,0.549,0.444,0.994,0.994,0.994c0.55,0,0.996-0.445,0.996-0.994v-2.984h1.989v2.984c0,0.549,0.445,0.994,0.991,0.994
	c0.55,0,0.998-0.445,0.998-0.994v-2.984h1.988V34.031L15.912,34.031z M16.905,22.102H4.971c-0.548,0-0.995,0.445-0.995,0.995v11.932
	c0,0.552,0.447,0.996,0.995,0.996h11.935c0.548,0,0.992-0.444,0.992-0.996V23.097C17.897,22.547,17.453,22.102,16.905,22.102
	L16.905,22.102z"/>
</svg>
