<svg xmlns="http://www.w3.org/2000/svg" width="38" height="40" viewBox="0 0 38 40">
    <path fill="#FFF" fill-rule="nonzero" d="M15.904 30.304c1.085-1.085 2.838-1.118 3.912-.047l3.398 3.398c1.07 1.074 1.04 2.826-.053 3.92l-.97.95a.998.998 0 0 1-.303.204 6.57 6.57 0 0 1-1.442.781 6.763 6.763 0 0 1-1.672.418c-.276.03-.683.036-1.22-.009a12.503 12.503 0 0 1-2.75-.568c-2.767-.884-5.669-2.671-8.578-5.58-4.809-4.81-6.642-8.476-6.15-12.55a6.79 6.79 0 0 1 .413-1.665c.199-.506.455-.983.761-1.413a.997.997 0 0 1 .224-.345l.96-.965c1.086-1.086 2.84-1.119 3.912-.047l3.398 3.399c1.071 1.072 1.04 2.825-.046 3.91l-.566.567-.613.613c.876 1.548 1.516 2.457 2.633 3.575 1.116 1.116 2.03 1.76 3.575 2.63l1.177-1.176zm2.5 1.368c-.28-.28-.77-.27-1.085.046l-1.712 1.711a1 1 0 0 1-1.19.169 49.969 49.969 0 0 1-.34-.19c-1.89-1.047-2.986-1.79-4.34-3.144-1.355-1.356-2.093-2.444-3.15-4.348l-.178-.318a1 1 0 0 1 .161-1.204l1.148-1.146.565-.566c.317-.316.325-.804.046-1.084L4.932 18.2c-.28-.279-.767-.27-1.082.045l-.768.772a1.005 1.005 0 0 1-.085.129 4.52 4.52 0 0 0-.642 1.13c-.154.407-.249.789-.293 1.176-.405 3.356 1.16 6.487 5.578 10.904 2.686 2.686 5.312 4.304 7.772 5.09.856.272 1.63.423 2.309.48.407.034.688.03.829.015a4.737 4.737 0 0 0 1.17-.295 4.52 4.52 0 0 0 1.134-.641c.034-.027.069-.05.104-.072l.796-.779c.316-.316.325-.805.045-1.086l-3.395-3.396zM17.829 15.1l5.755 5.557a1 1 0 0 1-1.39 1.439l-5.754-5.558a1 1 0 1 1 1.39-1.438zm-.123-7.07l12.948 12.504a1 1 0 0 1-1.39 1.438L16.318 9.467a1 1 0 1 1 1.389-1.438zm-.124-7.07l20.142 19.45a1 1 0 1 1-1.39 1.439l-20.14-19.45a1 1 0 0 1 1.39-1.439h-.002z"/>
</svg>
